<?xml version="1.0" encoding="iso-8859-1"?>
<!-- Uploaded to: SVG Repo, www.svgrepo.com, Generator: SVG Repo Mixer Tools -->
<svg version="1.1" id="Layer_1" xmlns="http://www.w3.org/2000/svg" xmlns:xlink="http://www.w3.org/1999/xlink" 
	 viewBox="0 0 512 512" xml:space="preserve">
<polygon style="fill:#42C8C6;" points="503.83,90.78 503.83,234.213 471.149,234.213 417.598,162.95 471.149,90.78 "/>
<rect x="360.393" y="90.777" style="fill:#81E3E2;" width="110.755" height="143.436"/>
<polygon style="fill:#42C8C6;" points="151.603,90.78 151.603,234.213 118.922,234.213 65.372,162.95 118.922,90.78 "/>
<rect x="8.17" y="90.777" style="fill:#81E3E2;" width="110.755" height="143.436"/>
<polygon style="fill:#FEDC3D;" points="327.716,90.78 327.716,234.213 295.035,234.213 241.484,162.95 295.035,90.78 "/>
<rect x="184.287" y="90.777" style="fill:#FFE777;" width="110.755" height="143.436"/>
<polygon style="fill:#FE5F1A;" points="151.603,321.362 151.603,464.795 118.922,464.795 65.372,393.532 118.922,321.362 "/>
<rect x="8.17" y="321.362" style="fill:#FE834D;" width="110.755" height="143.436"/>
<polygon style="fill:#FEDC3D;" points="327.716,321.362 327.716,464.795 295.035,464.795 241.484,393.532 295.035,321.362 "/>
<rect x="184.287" y="321.362" style="fill:#FFE777;" width="110.755" height="143.436"/>
<polygon style="fill:#FE5F1A;" points="503.83,321.362 503.83,464.795 471.149,464.795 417.598,393.532 471.149,321.362 "/>
<rect x="360.393" y="321.362" style="fill:#FE834D;" width="110.755" height="143.436"/>
<path d="M503.83,82.61H360.397c-4.513,0-8.17,3.657-8.17,8.17v55.376c0,4.513,3.657,8.17,8.17,8.17c4.513,0,8.17-3.657,8.17-8.17
	V98.95H495.66v127.093H368.567v-47.206c0-4.513-3.657-8.17-8.17-8.17c-4.513,0-8.17,3.657-8.17,8.17v55.377
	c0,4.513,3.657,8.17,8.17,8.17H503.83c4.513,0,8.17-3.657,8.17-8.17V90.78C512,86.267,508.343,82.61,503.83,82.61z"/>
<path d="M8.17,242.383h143.433c4.513,0,8.17-3.657,8.17-8.17V90.78c0-4.513-3.657-8.17-8.17-8.17H8.17C3.657,82.61,0,86.267,0,90.78
	v143.433C0,238.726,3.657,242.383,8.17,242.383z M16.34,98.95h127.093v127.093H16.34V98.95z"/>
<path d="M184.284,82.61c-4.513,0-8.17,3.657-8.17,8.17v143.433c0,4.513,3.657,8.17,8.17,8.17h143.432c4.513,0,8.17-3.657,8.17-8.17
	V90.78c0-4.513-3.657-8.17-8.17-8.17H184.284z M319.546,226.043H192.454V98.95h127.091V226.043z"/>
<path d="M151.603,313.191H8.17c-4.513,0-8.17,3.657-8.17,8.17v143.433c0,4.513,3.657,8.17,8.17,8.17h143.433
	c4.513,0,8.17-3.657,8.17-8.17V321.362C159.773,316.848,156.116,313.191,151.603,313.191z M143.433,456.624H16.34V329.532h127.093
	L143.433,456.624L143.433,456.624z"/>
<path d="M327.716,313.191H184.284c-4.513,0-8.17,3.657-8.17,8.17v55.377c0,4.513,3.657,8.17,8.17,8.17s8.17-3.657,8.17-8.17v-47.206
	h127.091v127.093H192.454v-47.205c0-4.513-3.657-8.17-8.17-8.17s-8.17,3.657-8.17,8.17v55.376c0,4.513,3.657,8.17,8.17,8.17h143.432
	c4.513,0,8.17-3.657,8.17-8.17V321.362C335.886,316.848,332.229,313.191,327.716,313.191z"/>
<path d="M503.83,313.191H360.397c-4.513,0-8.17,3.657-8.17,8.17v143.433c0,4.513,3.657,8.17,8.17,8.17H503.83
	c4.513,0,8.17-3.657,8.17-8.17V321.362C512,316.848,508.343,313.191,503.83,313.191z M495.66,456.624H368.567V329.532H495.66
	V456.624z"/>
<path d="M8.17,55.376h495.66c4.513,0,8.17-3.657,8.17-8.17s-3.657-8.17-8.17-8.17H8.17c-4.513,0-8.17,3.657-8.17,8.17
	S3.657,55.376,8.17,55.376z"/>
<path d="M503.83,269.617H8.17c-4.513,0-8.17,3.657-8.17,8.17c0,4.513,3.657,8.17,8.17,8.17h495.66c4.513,0,8.17-3.657,8.17-8.17
	C512,273.274,508.343,269.617,503.83,269.617z"/>
</svg>